<mxfile host="app.diagrams.net" modified="2024-04-25T14:13:56.406Z" agent="Mozilla/5.0 (Macintosh; Intel Mac OS X 10_15_7) AppleWebKit/605.1.15 (KHTML, like Gecko) Version/17.3 Safari/605.1.15" etag="NU9WNXAeiM8Klazo-ybs" version="24.2.8" type="device">
  <diagram name="Страница — 1" id="xEmgllcR3weaRd5ca7ey">
    <mxGraphModel dx="906" dy="558" grid="1" gridSize="10" guides="1" tooltips="1" connect="1" arrows="1" fold="1" page="1" pageScale="1" pageWidth="827" pageHeight="1169" math="0" shadow="0">
      <root>
        <mxCell id="0" />
        <mxCell id="1" parent="0" />
        <mxCell id="bxHcni_rUdnKQo_Xm9FA-153" value="Начало" style="rounded=1;whiteSpace=wrap;html=1;arcSize=50;" vertex="1" parent="1">
          <mxGeometry x="345" y="80" width="110" height="40" as="geometry" />
        </mxCell>
        <mxCell id="bxHcni_rUdnKQo_Xm9FA-154" value="Ввод N, M, a" style="shape=parallelogram;perimeter=parallelogramPerimeter;whiteSpace=wrap;html=1;fixedSize=1;" vertex="1" parent="1">
          <mxGeometry x="340" y="150" width="120" height="40" as="geometry" />
        </mxCell>
        <mxCell id="bxHcni_rUdnKQo_Xm9FA-156" value="" style="endArrow=classic;html=1;rounded=0;exitX=0.5;exitY=1;exitDx=0;exitDy=0;entryX=0.5;entryY=0;entryDx=0;entryDy=0;" edge="1" parent="1" target="bxHcni_rUdnKQo_Xm9FA-158">
          <mxGeometry width="50" height="50" relative="1" as="geometry">
            <mxPoint x="310" y="330" as="sourcePoint" />
            <mxPoint x="310" y="350" as="targetPoint" />
          </mxGeometry>
        </mxCell>
        <mxCell id="bxHcni_rUdnKQo_Xm9FA-157" value="i, j, k = 1, 1, 1&lt;div&gt;res1, res2, res3 = 1, 0, 0&lt;/div&gt;" style="rounded=0;whiteSpace=wrap;html=1;" vertex="1" parent="1">
          <mxGeometry x="325" y="220" width="150" height="40" as="geometry" />
        </mxCell>
        <mxCell id="bxHcni_rUdnKQo_Xm9FA-158" value="res1 = res1 * (i + 1)" style="rounded=0;whiteSpace=wrap;html=1;" vertex="1" parent="1">
          <mxGeometry x="250" y="370" width="120" height="40" as="geometry" />
        </mxCell>
        <mxCell id="bxHcni_rUdnKQo_Xm9FA-160" value="" style="endArrow=classic;html=1;rounded=0;exitX=0.5;exitY=1;exitDx=0;exitDy=0;" edge="1" parent="1" source="bxHcni_rUdnKQo_Xm9FA-158">
          <mxGeometry width="50" height="50" relative="1" as="geometry">
            <mxPoint x="60" y="520" as="sourcePoint" />
            <mxPoint x="310" y="430" as="targetPoint" />
          </mxGeometry>
        </mxCell>
        <mxCell id="bxHcni_rUdnKQo_Xm9FA-161" value="" style="endArrow=classic;html=1;rounded=0;exitX=0;exitY=0.5;exitDx=0;exitDy=0;" edge="1" parent="1" source="bxHcni_rUdnKQo_Xm9FA-202">
          <mxGeometry width="50" height="50" relative="1" as="geometry">
            <mxPoint x="290" y="520" as="sourcePoint" />
            <mxPoint x="310" y="280" as="targetPoint" />
            <Array as="points">
              <mxPoint x="230" y="518" />
              <mxPoint x="230" y="280" />
            </Array>
          </mxGeometry>
        </mxCell>
        <mxCell id="bxHcni_rUdnKQo_Xm9FA-162" value="" style="endArrow=classic;html=1;rounded=0;exitX=0.5;exitY=1;exitDx=0;exitDy=0;entryX=0.5;entryY=0;entryDx=0;entryDy=0;" edge="1" parent="1" source="bxHcni_rUdnKQo_Xm9FA-153" target="bxHcni_rUdnKQo_Xm9FA-154">
          <mxGeometry width="50" height="50" relative="1" as="geometry">
            <mxPoint x="120" y="230" as="sourcePoint" />
            <mxPoint x="170" y="180" as="targetPoint" />
          </mxGeometry>
        </mxCell>
        <mxCell id="bxHcni_rUdnKQo_Xm9FA-163" value="" style="endArrow=classic;html=1;rounded=0;exitX=0.5;exitY=1;exitDx=0;exitDy=0;entryX=0.5;entryY=0;entryDx=0;entryDy=0;" edge="1" parent="1" source="bxHcni_rUdnKQo_Xm9FA-154" target="bxHcni_rUdnKQo_Xm9FA-157">
          <mxGeometry width="50" height="50" relative="1" as="geometry">
            <mxPoint x="140" y="290" as="sourcePoint" />
            <mxPoint x="190" y="240" as="targetPoint" />
          </mxGeometry>
        </mxCell>
        <mxCell id="bxHcni_rUdnKQo_Xm9FA-164" value="" style="endArrow=classic;html=1;rounded=0;exitX=0;exitY=0.5;exitDx=0;exitDy=0;entryX=0.5;entryY=0;entryDx=0;entryDy=0;" edge="1" parent="1" source="bxHcni_rUdnKQo_Xm9FA-157" target="bxHcni_rUdnKQo_Xm9FA-199">
          <mxGeometry width="50" height="50" relative="1" as="geometry">
            <mxPoint x="180" y="320" as="sourcePoint" />
            <mxPoint x="310" y="290" as="targetPoint" />
            <Array as="points">
              <mxPoint x="310" y="240" />
            </Array>
          </mxGeometry>
        </mxCell>
        <mxCell id="bxHcni_rUdnKQo_Xm9FA-166" value="" style="endArrow=classic;html=1;rounded=0;entryX=0.5;entryY=0;entryDx=0;entryDy=0;exitX=0.5;exitY=1;exitDx=0;exitDy=0;" edge="1" parent="1" source="bxHcni_rUdnKQo_Xm9FA-201" target="bxHcni_rUdnKQo_Xm9FA-167">
          <mxGeometry width="50" height="50" relative="1" as="geometry">
            <mxPoint x="460" y="410" as="sourcePoint" />
            <mxPoint x="470" y="430" as="targetPoint" />
          </mxGeometry>
        </mxCell>
        <mxCell id="bxHcni_rUdnKQo_Xm9FA-167" value="res2 = res2 - (1 - j)" style="rounded=0;whiteSpace=wrap;html=1;" vertex="1" parent="1">
          <mxGeometry x="410" y="430" width="120" height="40" as="geometry" />
        </mxCell>
        <mxCell id="bxHcni_rUdnKQo_Xm9FA-171" value="" style="endArrow=classic;html=1;rounded=0;exitX=1;exitY=0.5;exitDx=0;exitDy=0;entryX=0.5;entryY=0;entryDx=0;entryDy=0;" edge="1" parent="1" source="bxHcni_rUdnKQo_Xm9FA-199" target="bxHcni_rUdnKQo_Xm9FA-201">
          <mxGeometry width="50" height="50" relative="1" as="geometry">
            <mxPoint x="360.5440000000001" y="309.68000000000006" as="sourcePoint" />
            <mxPoint x="490" y="360" as="targetPoint" />
            <Array as="points">
              <mxPoint x="470" y="315" />
            </Array>
          </mxGeometry>
        </mxCell>
        <mxCell id="bxHcni_rUdnKQo_Xm9FA-178" value="" style="endArrow=classic;html=1;rounded=0;exitX=1;exitY=0.5;exitDx=0;exitDy=0;entryX=1;entryY=0.5;entryDx=0;entryDy=0;" edge="1" parent="1" source="bxHcni_rUdnKQo_Xm9FA-201" target="bxHcni_rUdnKQo_Xm9FA-197">
          <mxGeometry width="50" height="50" relative="1" as="geometry">
            <mxPoint x="522" y="390" as="sourcePoint" />
            <mxPoint x="590" y="580" as="targetPoint" />
            <Array as="points">
              <mxPoint x="540" y="385" />
              <mxPoint x="540" y="605" />
            </Array>
          </mxGeometry>
        </mxCell>
        <mxCell id="bxHcni_rUdnKQo_Xm9FA-180" value="Вывод res" style="shape=parallelogram;perimeter=parallelogramPerimeter;whiteSpace=wrap;html=1;fixedSize=1;" vertex="1" parent="1">
          <mxGeometry x="340" y="660" width="120" height="40" as="geometry" />
        </mxCell>
        <mxCell id="bxHcni_rUdnKQo_Xm9FA-181" value="" style="endArrow=classic;html=1;rounded=0;exitX=0.5;exitY=1;exitDx=0;exitDy=0;" edge="1" parent="1" source="bxHcni_rUdnKQo_Xm9FA-180">
          <mxGeometry width="50" height="50" relative="1" as="geometry">
            <mxPoint x="400" y="800" as="sourcePoint" />
            <mxPoint x="400" y="730" as="targetPoint" />
          </mxGeometry>
        </mxCell>
        <mxCell id="bxHcni_rUdnKQo_Xm9FA-182" value="Конец" style="rounded=1;whiteSpace=wrap;html=1;arcSize=50;" vertex="1" parent="1">
          <mxGeometry x="340" y="730" width="120" height="40" as="geometry" />
        </mxCell>
        <mxCell id="bxHcni_rUdnKQo_Xm9FA-184" value="" style="endArrow=classic;html=1;rounded=0;exitX=0.5;exitY=1;exitDx=0;exitDy=0;" edge="1" parent="1" source="bxHcni_rUdnKQo_Xm9FA-167">
          <mxGeometry width="50" height="50" relative="1" as="geometry">
            <mxPoint x="470" y="490" as="sourcePoint" />
            <mxPoint x="470" y="500" as="targetPoint" />
          </mxGeometry>
        </mxCell>
        <mxCell id="bxHcni_rUdnKQo_Xm9FA-185" value="" style="endArrow=classic;html=1;rounded=0;exitX=0;exitY=0.5;exitDx=0;exitDy=0;" edge="1" parent="1" source="bxHcni_rUdnKQo_Xm9FA-203">
          <mxGeometry width="50" height="50" relative="1" as="geometry">
            <mxPoint x="450" y="550" as="sourcePoint" />
            <mxPoint x="470" y="350" as="targetPoint" />
            <Array as="points">
              <mxPoint x="390" y="515" />
              <mxPoint x="390" y="350" />
            </Array>
          </mxGeometry>
        </mxCell>
        <mxCell id="bxHcni_rUdnKQo_Xm9FA-195" value="res3 = res3 - (k / 2 / a)" style="rounded=0;whiteSpace=wrap;html=1;" vertex="1" parent="1">
          <mxGeometry x="245" y="430" width="130" height="40" as="geometry" />
        </mxCell>
        <mxCell id="bxHcni_rUdnKQo_Xm9FA-196" value="" style="endArrow=classic;html=1;rounded=0;exitX=0.5;exitY=1;exitDx=0;exitDy=0;" edge="1" parent="1" source="bxHcni_rUdnKQo_Xm9FA-195">
          <mxGeometry width="50" height="50" relative="1" as="geometry">
            <mxPoint x="210" y="600" as="sourcePoint" />
            <mxPoint x="310" y="500" as="targetPoint" />
          </mxGeometry>
        </mxCell>
        <mxCell id="bxHcni_rUdnKQo_Xm9FA-197" value="res = a * res1 - res2 - res3" style="rounded=0;whiteSpace=wrap;html=1;" vertex="1" parent="1">
          <mxGeometry x="310" y="585" width="180" height="40" as="geometry" />
        </mxCell>
        <mxCell id="bxHcni_rUdnKQo_Xm9FA-198" value="" style="endArrow=classic;html=1;rounded=0;exitX=0.5;exitY=1;exitDx=0;exitDy=0;entryX=0.5;entryY=0;entryDx=0;entryDy=0;" edge="1" parent="1" source="bxHcni_rUdnKQo_Xm9FA-197" target="bxHcni_rUdnKQo_Xm9FA-180">
          <mxGeometry width="50" height="50" relative="1" as="geometry">
            <mxPoint x="240" y="750" as="sourcePoint" />
            <mxPoint x="290" y="700" as="targetPoint" />
          </mxGeometry>
        </mxCell>
        <mxCell id="bxHcni_rUdnKQo_Xm9FA-199" value="i &amp;lt;= M" style="rhombus;whiteSpace=wrap;html=1;" vertex="1" parent="1">
          <mxGeometry x="270" y="300" width="80" height="30" as="geometry" />
        </mxCell>
        <mxCell id="bxHcni_rUdnKQo_Xm9FA-201" value="j &amp;lt;= N" style="rhombus;whiteSpace=wrap;html=1;" vertex="1" parent="1">
          <mxGeometry x="430" y="370" width="80" height="30" as="geometry" />
        </mxCell>
        <mxCell id="bxHcni_rUdnKQo_Xm9FA-202" value="i = i + 1" style="rounded=0;whiteSpace=wrap;html=1;" vertex="1" parent="1">
          <mxGeometry x="275" y="500" width="70" height="35" as="geometry" />
        </mxCell>
        <mxCell id="bxHcni_rUdnKQo_Xm9FA-203" value="j = j + 1" style="rounded=0;whiteSpace=wrap;html=1;" vertex="1" parent="1">
          <mxGeometry x="435" y="500" width="70" height="30" as="geometry" />
        </mxCell>
      </root>
    </mxGraphModel>
  </diagram>
</mxfile>
